<svg width="27" height="26" viewBox="0 0 27 26" fill="none" xmlns="http://www.w3.org/2000/svg">
<path d="M6.66172 25.334C6.96451 25.334 7.2658 25.2411 7.52512 25.0559L13.6221 20.6835L19.719 25.0559C19.9716 25.2377 20.2752 25.3349 20.5864 25.3339C20.8976 25.3328 21.2005 25.2334 21.4518 25.0499C21.7034 24.8675 21.891 24.6104 21.988 24.3152C22.085 24.02 22.0865 23.7017 21.9922 23.4056L19.7183 16.0668L25.7605 11.809C26.0109 11.6242 26.1969 11.3654 26.2921 11.0691C26.3873 10.7728 26.387 10.454 26.2911 10.1579C26.1945 9.86257 26.0075 9.60503 25.7566 9.42172C25.5056 9.23842 25.2034 9.13861 24.8926 9.13641L17.4091 9.12517L15.0266 1.96847C14.9283 1.67365 14.7397 1.41723 14.4875 1.23553C14.2354 1.05383 13.9325 0.956054 13.6217 0.956054C13.3109 0.956054 13.008 1.05383 12.7559 1.23553C12.5037 1.41723 12.3151 1.67365 12.2168 1.96847L9.87471 9.12517L2.35302 9.13641C2.04188 9.13817 1.73921 9.23792 1.488 9.42151C1.23679 9.60509 1.04982 9.86316 0.953651 10.1591C0.857476 10.455 0.856992 10.7737 0.952266 11.0698C1.04754 11.366 1.23373 11.6247 1.48438 11.809L7.52662 16.0668L5.25272 23.4056C5.15819 23.7016 5.15946 24.0199 5.25635 24.3151C5.35324 24.6104 5.5408 24.8675 5.79234 25.0499C6.04445 25.2349 6.34906 25.3344 6.66172 25.334Z" fill="#FFAC33"/>
</svg>
