<svg width="128" height="128" viewBox="0 0 128 128" fill="none" xmlns="http://www.w3.org/2000/svg">
<g clip-path="url(#clip0_1_6619)">
<path d="M127.994 63.1154L124.242 63.1672C124.464 79.2587 118.407 94.4736 107.187 106.009C95.9657 117.544 80.924 124.02 64.8329 124.242C48.7399 124.471 33.5267 118.407 21.9912 107.187C10.4558 95.9658 3.98043 80.9243 3.75783 64.833C3.53522 48.7417 9.5924 33.5271 20.8133 21.9915C32.0343 10.4561 47.0758 3.98076 63.1671 3.75815C78.005 3.5518 92.0821 8.68579 103.228 18.2754L99.8564 18.322L99.9081 22.0735L109.853 21.936L109.715 11.9914L105.964 12.0432L106.015 15.7239C94.1206 5.34542 79.0253 -0.218773 63.1153 0.00658631C46.0218 0.242951 30.0436 7.12178 18.124 19.3755C6.20426 31.6294 -0.229855 47.7917 0.00625985 64.885C0.242624 81.9785 7.12121 97.9565 19.3751 109.876C31.4122 121.585 47.2184 128.001 63.976 128C64.2779 128 64.5823 127.998 64.8847 127.994C81.978 127.757 97.9562 120.879 109.876 108.625C121.795 96.3713 128.23 80.2089 127.994 63.1154Z" fill="#AE894D"/>
<path d="M64.0003 10.8496C49.8032 10.8496 36.456 16.3783 26.4171 26.4171C16.3783 36.456 10.8496 49.8035 10.8496 64.0004C10.8496 78.1972 16.3783 91.5447 26.4169 101.584C36.4557 111.623 49.8032 117.151 64.0001 117.151C78.197 117.151 91.5447 111.622 101.584 101.584C111.622 91.5447 117.151 78.1975 117.151 64.0006C117.151 49.8037 111.622 36.4563 101.584 26.4174C91.5447 16.3783 78.1972 10.8496 64.0003 10.8496ZM98.9305 98.9308C96.29 101.571 93.4028 103.875 90.3216 105.823L87.8119 101.476L84.5628 103.352L87.0753 107.704C80.5881 111.139 73.3794 113.083 65.8762 113.361V108.359H62.1244V113.361C54.6213 113.083 47.4126 111.139 40.9254 107.704L43.4381 103.352L40.1891 101.476L37.6791 105.823C34.5978 103.875 31.7107 101.571 29.0702 98.9308C26.4244 96.285 24.1168 93.3916 22.1668 90.3036L26.5097 87.7961L24.6338 84.5471L20.2877 87.0563C16.856 80.5696 14.9156 73.3621 14.6394 65.8605H19.6266V62.1087H14.6404C14.9211 54.6093 16.8653 47.4041 20.2999 40.9202L24.6335 43.4221L26.5094 40.1731L22.1808 37.6739C24.1278 34.5944 26.4309 31.709 29.0699 29.0697C31.7142 26.4254 34.6061 24.1188 37.6921 22.1693L40.1888 26.4934L43.4379 24.6175L40.9392 20.2897C47.4226 16.8588 54.6265 14.9176 62.1242 14.6394V19.6104H65.876V14.6399C73.3739 14.9181 80.5776 16.8593 87.061 20.2902L84.5625 24.618L87.8116 26.4939L90.3081 22.1698C93.3943 24.1193 96.286 26.4259 98.9303 29.0702C101.569 31.7095 103.872 34.5949 105.819 37.6744L101.491 40.1736L103.367 43.4226L107.7 40.9207C111.135 47.4046 113.079 54.6098 113.36 62.1092H108.374V65.861H113.361C113.085 73.3624 111.144 80.5699 107.713 87.0565L103.366 84.5473L101.49 87.7964L105.833 90.3036C103.884 93.3918 101.576 96.2852 98.9305 98.9308Z" fill="#AE894D"/>
<path d="M54.4902 82.1855H58.242V85.9374H54.4902V82.1855Z" fill="#AE894D"/>
<path d="M61.9961 82.1855H65.7479V85.9374H61.9961V82.1855Z" fill="#AE894D"/>
<path d="M69.498 82.1855H73.2498V85.9374H69.498V82.1855Z" fill="#AE894D"/>
<path d="M66.6992 75.2471L76.4586 50.743L79.944 52.1312L70.1846 76.6352L66.6992 75.2471Z" fill="#AE894D"/>
<path d="M85.0898 54.159H96.0964L86.3499 74.9969L89.7486 76.5867L100.449 53.7086V50.4072H85.0898V54.159Z" fill="#AE894D"/>
<path d="M60.0826 50.3438H54.3456L42.6992 70.6406H56.2798L56.2648 76.6007L60.0166 76.6102L60.0316 70.6406H61.6891V66.8888H60.0409L60.0826 50.3438ZM56.289 66.889H49.1773L56.3203 54.4405L56.289 66.889Z" fill="#AE894D"/>
<path d="M39.9719 64.9123C41.3746 62.9081 42.2868 61.0259 42.6827 59.3181L42.8438 58.133V58.0137C42.8438 53.7672 39.3891 50.3125 35.1426 50.3125C31.4708 50.3125 28.2928 52.9243 27.5859 56.523L31.2675 57.2461C31.6296 55.4025 33.2592 54.0643 35.1426 54.0643C37.2841 54.0643 39.033 55.7779 39.0905 57.9057L39.0072 58.5567C38.7103 59.7631 38.0122 61.1608 36.9309 62.7138L28.4166 73.3959L28.4043 76.6795L41.9269 76.721L41.9384 72.9692L33.5748 72.9435L39.9016 65.0056L39.9719 64.9123Z" fill="#AE894D"/>
</g>
<defs>
<clipPath id="clip0_1_6619">
<rect width="128" height="128" fill="white"/>
</clipPath>
</defs>
</svg>
