<svg width="128" height="128" viewBox="0 0 128 128" fill="none" xmlns="http://www.w3.org/2000/svg">
<g clip-path="url(#clip0_1_6609)">
<path d="M122.165 79.9182L125.827 76.2571C128.132 73.9514 128.132 70.2005 125.827 67.8948C124.71 66.7786 123.225 66.1633 121.645 66.1633C120.46 66.1633 119.327 66.51 118.364 67.1555L117.592 64.5657L121.556 60.6008C123.862 58.2952 123.862 54.5442 121.556 52.2395C119.434 50.1164 116.089 49.9534 113.771 51.7395L109.074 35.9699C110.95 34.1633 112.747 32.4055 114.44 30.7121C119.32 25.8313 123.288 20.6662 125.613 16.1662C129.542 8.56072 127.897 4.49529 125.826 2.42399C123.756 0.352703 119.69 -1.29085 112.084 2.63786C107.585 4.96208 102.419 8.92986 97.5387 13.8107C95.8453 15.5041 94.0865 17.3 92.2809 19.176L76.5103 14.4787C78.2965 12.1623 78.1334 8.81658 76.0113 6.69353C73.7056 4.38884 69.9547 4.38786 67.65 6.69353L63.6851 10.6584L61.0943 9.8869C61.7398 8.92303 62.0865 7.79021 62.0865 6.60466C62.0865 5.02556 61.4712 3.54021 60.355 2.42399C58.0503 0.118328 54.2984 0.118328 51.9937 2.42399L48.3326 6.08513L29.6714 0.526532C29.0064 0.329266 28.2876 0.510907 27.7984 1.00114L22.9946 5.80486C22.188 6.61052 22.2944 7.98846 23.2144 8.66131L70.2984 43.1252C59.6822 55.095 49.4556 67.0794 42.2359 75.6419L28.3862 70.3147C27.69 70.0471 26.9019 70.2141 26.3745 70.7415L20.6812 76.4348C19.9448 77.1721 19.9448 78.3665 20.6812 79.1028L49.147 107.569C49.8736 108.296 51.0884 108.296 51.816 107.569L57.5084 101.876C58.0357 101.349 58.2037 100.56 57.9351 99.8636L52.6089 86.0149C61.1714 78.7952 73.1549 68.5686 85.1256 57.9514L88.8658 63.0627C89.5299 63.97 90.8766 64.0872 91.691 63.3137C92.3697 62.6692 92.4635 61.5881 91.9117 60.8342L87.9576 55.4319C94.2174 49.845 100.399 44.2082 106.007 38.8967L123.786 98.5794L121.334 101.031L96.899 67.6477C96.2838 66.8069 95.1031 66.6243 94.2623 67.2395C93.4205 67.8557 93.2379 69.0364 93.8541 69.8772L119.59 105.036C120.262 105.956 121.64 106.063 122.446 105.256L127.25 100.452C127.74 99.9632 127.922 99.2435 127.724 98.5794L122.165 79.9182ZM70.3189 9.36248C71.1431 8.53826 72.5191 8.53826 73.3433 9.36248C74.1773 10.1965 74.1773 11.5529 73.3433 12.3869L72.4586 13.2717L67.7974 11.883L70.3189 9.36248ZM54.6626 5.09294C55.4957 4.25896 56.8531 4.25896 57.6871 5.09294C58.521 5.92693 58.521 7.28338 57.6871 8.11736L57.105 8.69842L52.4449 7.31072L54.6626 5.09294ZM27.2192 6.91619L29.6714 4.46501L89.3541 22.2424C84.0426 27.8518 78.4058 34.0334 72.8179 40.2932L27.2192 6.91619ZM28.1763 74.2776L39.6656 78.6966C36.7837 82.1282 34.5738 84.7835 33.27 86.3548L24.6841 77.7688L28.1763 74.2776ZM35.9507 89.0354C42.5288 81.0989 77.2994 39.3869 100.208 16.4787C104.753 11.9328 109.714 8.11053 113.816 5.99138C116.896 4.39958 121.017 2.95232 123.158 5.09294C125.298 7.23357 123.85 11.3547 122.259 14.4348C120.14 18.5373 116.317 23.4973 111.771 28.0432C88.8648 50.9494 47.1519 85.721 39.2154 92.3001L35.9507 89.0354ZM53.9732 100.075L50.482 103.566L41.896 94.9798C43.4663 93.677 46.1226 91.4671 49.5542 88.5852L53.9732 100.075ZM120.133 70.5637C120.967 69.7298 122.324 69.7298 123.158 70.5637C123.992 71.3977 123.992 72.7542 123.158 73.5882L120.94 75.8059L119.551 71.1458L120.133 70.5637ZM115.864 54.9075C116.697 54.0735 118.054 54.0745 118.888 54.9075C119.713 55.7317 119.713 57.1077 118.888 57.9319L116.367 60.4534L114.978 55.7922L115.864 54.9075Z" fill="#AE894D"/>
<path d="M113.27 108.926L97.1673 125.029C96.4808 125.716 96.4349 126.851 97.0667 127.589C97.7728 128.414 99.0687 128.465 99.8362 127.698L115.939 111.595C116.676 110.858 116.676 109.664 115.939 108.926C115.202 108.19 114.007 108.19 113.27 108.926Z" fill="#AE894D"/>
<path d="M107.888 103.543C108.625 102.807 108.625 101.611 107.888 100.875C107.152 100.138 105.956 100.138 105.22 100.875L95.1554 110.938C94.4689 111.626 94.423 112.761 95.0548 113.499C95.7609 114.323 97.0568 114.375 97.8243 113.607L107.888 103.543Z" fill="#AE894D"/>
<path d="M101.85 93.4795C102.587 92.7422 102.587 91.5469 101.85 90.8105C101.112 90.0732 99.9181 90.0732 99.1808 90.8105L92.1359 97.8555C91.4493 98.542 91.4035 99.6777 92.0363 100.416C92.7413 101.24 94.0372 101.292 94.8048 100.524L101.85 93.4795Z" fill="#AE894D"/>
<path d="M19.3245 13.3159C18.5872 12.5796 17.3919 12.5796 16.6555 13.3159L0.552979 29.4195C-0.184326 30.1558 -0.184326 31.3511 0.552979 32.0874C1.27954 32.814 2.49439 32.814 3.22193 32.0874L19.3245 15.9849C20.0608 15.2476 20.0608 14.0532 19.3245 13.3159Z" fill="#AE894D"/>
<path d="M27.3747 21.3684C26.6374 20.6311 25.443 20.6311 24.7067 21.3684L14.6423 31.4329C13.9548 32.1194 13.9098 33.2542 14.5417 33.9925C15.2477 34.8167 16.5426 34.8684 17.3102 34.1008L27.3747 24.0374C28.112 23.3001 28.112 22.1047 27.3747 21.3684Z" fill="#AE894D"/>
<path d="M27.7261 37.1196C28.4536 37.8462 29.6675 37.8462 30.395 37.1196L37.44 30.0747C38.1763 29.3374 38.1763 28.1431 37.44 27.4058C36.7026 26.6694 35.5083 26.6694 34.771 27.4058L27.7261 34.4507C26.9897 35.188 26.9897 36.3823 27.7261 37.1196Z" fill="#AE894D"/>
</g>
<defs>
<clipPath id="clip0_1_6609">
<rect width="128" height="128" fill="white"/>
</clipPath>
</defs>
</svg>
