<svg width="32" height="32" viewBox="0 0 32 32" fill="none" xmlns="http://www.w3.org/2000/svg">
<path d="M1.41421 29.6984C0.633165 28.9173 0.633165 27.651 1.41421 26.87L26.8701 1.41412C27.6511 0.633075 28.9174 0.633074 29.6985 1.41412C30.4795 2.19517 30.4795 3.4615 29.6985 4.24255L4.24264 29.6984C3.46159 30.4794 2.19526 30.4794 1.41421 29.6984Z" fill="#B89254"/>
<path d="M1.4144 1.41421C2.19545 0.633165 3.46178 0.633165 4.24283 1.41421L29.6987 26.8701C30.4797 27.6511 30.4797 28.9174 29.6987 29.6985C28.9176 30.4795 27.6513 30.4795 26.8702 29.6985L1.4144 4.24264C0.633351 3.46159 0.633351 2.19526 1.4144 1.41421Z" fill="#B89254"/>
</svg>
