<svg width="220" height="40" viewBox="0 0 220 40" fill="none" xmlns="http://www.w3.org/2000/svg">
<g clip-path="url(#clip0_1_6899)">
<path fill-rule="evenodd" clip-rule="evenodd" d="M9.53437 8.62435C7.45578 11.0431 6.24641 14.0665 5.90628 17.7324H30.2825C29.9046 14.0287 28.5819 10.9675 26.2765 8.58655C23.9712 6.20562 21.2123 4.99625 17.9999 4.99625C14.4474 4.99625 11.613 6.20562 9.53437 8.62435ZM30.2825 22.2675H0.27517L0.199585 20.3023C0.199585 14.5578 1.78688 9.75813 4.96146 5.94107C8.13604 2.12401 12.4444 0.234375 17.8488 0.234375C23.0264 0.234375 27.3347 2.1618 30.8116 5.97886C34.2886 9.83371 35.9892 14.4822 35.9892 19.9999C35.9892 25.82 34.1752 30.5819 30.5471 34.2478C26.919 37.9515 22.4217 39.7655 17.1307 39.7655C10.9705 39.7655 5.75511 37.4224 1.52233 32.6605L5.03705 29.5237C8.43839 33.0762 12.4444 34.8903 16.9795 34.8903C20.4187 34.8903 23.4421 33.7565 25.9364 31.4511C28.4685 29.1836 29.9046 26.1224 30.2825 22.2675Z" fill="#B89254"/>
<path fill-rule="evenodd" clip-rule="evenodd" d="M37.0859 6.05445C33.3822 9.94709 31.4926 14.5956 31.4926 19.9999C31.4926 25.4421 33.3822 30.0906 37.0859 33.9454C40.8273 37.8381 45.438 39.7655 50.918 39.7655C56.8136 39.7655 61.9534 37.3468 66.3374 32.4715L62.6337 29.0324C59.0434 32.8117 55.2641 34.7391 51.1825 34.7391C47.2521 34.7391 43.9263 33.303 41.2809 30.4307C38.5976 27.5963 37.2748 24.1193 37.2748 19.9999C37.2748 15.8427 38.5976 12.3658 41.2053 9.49358C43.813 6.65913 47.0253 5.22301 50.8424 5.22301C55.0752 5.22301 58.9678 7.07485 62.4825 10.7785L66.0728 6.96147C61.8023 2.46414 56.7758 0.234375 50.918 0.234375C45.438 0.234375 40.8273 2.1618 37.0859 6.05445Z" fill="#B89254"/>
<path d="M79.602 31.7158V8.24658H94.5679V8.81347L82.5876 8.54892V19.3954L93.7364 19.2065V19.7356L82.5876 19.6222V31.4513L94.5679 31.1489V31.7158H79.602Z" fill="#402D0E"/>
<path d="M105.376 31.7159L105.338 31.6781V31.7159H103.373L97.1371 15.9941H100.236L105.527 30.3931L110.931 15.9941H111.574L105.376 31.7159Z" fill="#402D0E"/>
<path d="M121.815 31.338C122.269 31.338 122.76 31.2246 123.252 31.0356C123.705 30.8467 124.159 30.5443 124.574 30.2042C124.99 29.8263 125.33 29.3349 125.557 28.7303C125.821 28.1634 125.973 27.4831 125.973 26.8028V24.2329C124.877 23.666 123.667 23.4015 122.345 23.4015C121.022 23.4015 119.926 23.7416 119.132 24.4597C118.301 25.2155 117.923 26.1982 117.923 27.4453C117.923 28.6547 118.263 29.5995 118.943 30.3176C119.661 30.9978 120.606 31.338 121.815 31.338ZM126.048 31.7159V28.5413C125.557 29.6373 124.839 30.5065 123.856 31.149C122.874 31.7537 121.702 32.0938 120.379 32.0938C118.83 32.0938 117.545 31.7159 116.524 30.96C115.466 30.2042 114.975 29.1838 114.975 27.8232C114.975 26.9918 115.126 26.236 115.504 25.6313C115.844 24.9888 116.373 24.4975 116.978 24.1196C117.62 23.7416 118.301 23.4771 119.094 23.2881C119.85 23.0992 120.682 23.0236 121.626 23.0236C123.214 23.0236 124.65 23.3259 125.973 23.9306V20.4537C125.973 18.7908 125.67 17.6192 125.103 16.939C124.537 16.2965 123.667 15.9563 122.534 15.9563C121.438 15.9563 120.53 16.3343 119.85 17.0901C119.17 17.846 118.641 19.0553 118.263 20.7182L115.731 20.4915C116.26 18.942 117.129 17.7326 118.339 16.8634C119.548 16.0319 120.984 15.6162 122.609 15.6162C123.592 15.6162 124.423 15.7296 125.179 15.9186C125.897 16.1453 126.54 16.4854 127.106 16.939C127.711 17.4303 128.127 18.1105 128.429 18.9798C128.732 19.849 128.883 20.8694 128.883 22.1165V31.7159H126.048Z" fill="#402D0E"/>
<path d="M156.322 15.578L153.563 15.8047C153.336 13.4616 152.58 11.6475 151.22 10.3248C149.897 8.96425 148.121 8.32177 145.891 8.32177C144.531 8.32177 143.283 8.62412 142.15 9.19101C141.054 9.79569 140.147 10.5893 139.429 11.6097C138.748 12.6301 138.219 13.8395 137.841 15.1622C137.501 16.5228 137.312 17.9589 137.312 19.5462C137.312 23.2877 138.181 26.2355 139.958 28.3141C141.772 30.3927 144.153 31.4509 147.138 31.4509C148.763 31.4509 150.275 31.1108 151.636 30.3927C152.996 29.7124 154.092 28.692 154.924 27.4071C155.755 26.1221 156.171 24.6104 156.246 22.9475H156.587C156.435 25.7442 155.415 27.974 153.488 29.599C151.56 31.2619 149.179 32.0934 146.345 32.0934C143.964 32.0934 141.885 31.5643 140.033 30.5439C138.181 29.4857 136.745 28.0495 135.725 26.2355C134.742 24.3837 134.213 22.3051 134.213 19.9619C134.213 18.1857 134.516 16.5606 135.12 15.0489C135.687 13.5372 136.519 12.29 137.577 11.2318C138.597 10.2114 139.882 9.37997 141.318 8.81308C142.792 8.2084 144.379 7.94385 146.08 7.94385C147.29 7.94385 148.499 8.09502 149.595 8.43515C150.729 8.77529 151.749 9.2288 152.694 9.87127C153.601 10.5137 154.395 11.3074 155.037 12.29C155.679 13.2726 156.095 14.3686 156.322 15.578Z" fill="#402D0E"/>
<path d="M169.549 15.6162C171.098 15.6162 172.534 15.9563 173.819 16.6366C175.104 17.3547 176.124 18.3373 176.88 19.5844C177.598 20.8316 177.976 22.2677 177.976 23.855C177.976 25.4423 177.598 26.8784 176.88 28.1256C176.124 29.3727 175.104 30.3554 173.819 31.0734C172.534 31.7537 171.098 32.0938 169.549 32.0938C167.961 32.0938 166.487 31.7537 165.202 31.0734C163.917 30.3554 162.897 29.3727 162.179 28.1256C161.423 26.8784 161.045 25.4423 161.045 23.855C161.045 21.4363 161.877 19.4711 163.464 17.9216C165.089 16.3721 167.092 15.6162 169.549 15.6162ZM169.549 31.7159C171.211 31.7159 172.534 31.0734 173.479 29.7129C174.386 28.3523 174.877 26.4249 174.877 23.855C174.877 21.3229 174.386 19.3577 173.479 17.9971C172.534 16.6366 171.211 15.9563 169.549 15.9563C167.848 15.9563 166.525 16.6366 165.58 17.9971C164.635 19.3577 164.182 21.3229 164.182 23.855C164.182 26.4249 164.635 28.3523 165.58 29.7129C166.525 31.0734 167.848 31.7159 169.549 31.7159Z" fill="#402D0E"/>
<path d="M191.014 31.4891C191.619 31.4891 192.186 31.3379 192.752 31.0356C193.282 30.6954 193.811 30.2419 194.264 29.6372C194.718 29.0325 195.096 28.2389 195.398 27.2563C195.662 26.2359 195.814 25.1021 195.814 23.8172C195.814 21.5874 195.36 19.7733 194.453 18.3372C193.508 16.9389 192.337 16.2586 190.938 16.2586C189.464 16.2586 188.255 16.8633 187.272 18.1105C186.29 19.3198 185.799 21.1717 185.799 23.6282C185.799 26.0847 186.252 28.0121 187.197 29.4105C188.104 30.771 189.389 31.4891 191.014 31.4891ZM195.662 31.7158V27.7098C195.209 29.1837 194.453 30.2797 193.433 30.9978C192.375 31.7158 191.203 32.0938 189.88 32.0938C187.726 32.0938 186.025 31.3757 184.703 29.9018C183.38 28.4279 182.7 26.5004 182.7 24.1195C182.7 21.3984 183.38 19.282 184.703 17.8081C186.063 16.3342 187.839 15.6162 190.031 15.6162C191.392 15.6162 192.563 15.9941 193.508 16.7877C194.491 17.5436 195.209 18.7152 195.662 20.2647V8.24658H198.535V31.7158H195.662Z" fill="#402D0E"/>
<path d="M219.436 26.1604C219.058 28.1256 218.226 29.6373 216.941 30.6199C215.694 31.6025 214.069 32.0938 212.142 32.0938C210.706 32.0938 209.421 31.7915 208.249 31.149C207.078 30.5443 206.133 29.5995 205.415 28.3523C204.697 27.1052 204.319 25.5935 204.319 23.9306C204.319 21.4363 205.037 19.4333 206.511 17.9216C207.985 16.3721 209.874 15.6162 212.255 15.6162C214.409 15.6162 216.148 16.2965 217.433 17.6948C218.718 19.0553 219.36 20.8316 219.36 22.948V23.137H207.38C207.456 26.0092 208.022 28.05 209.081 29.3727C210.177 30.6955 211.613 31.338 213.465 31.338C214.938 31.338 216.148 30.8467 217.168 29.9018C218.189 28.957 218.831 27.7099 219.133 26.0848L219.436 26.1604ZM207.38 22.5323V22.759H216.601C216.526 20.6804 216.11 19.0553 215.354 17.8082C214.598 16.561 213.54 15.9563 212.142 15.9563C211.084 15.9563 210.214 16.2587 209.496 16.9012C208.74 17.5058 208.211 18.2995 207.871 19.2821C207.531 20.2647 207.38 21.3229 207.38 22.5323Z" fill="#402D0E"/>
</g>
<defs>
<clipPath id="clip0_1_6899">
<rect width="219.235" height="39.549" fill="white" transform="translate(0.199585 0.225586)"/>
</clipPath>
</defs>
</svg>
