<svg width="220" height="40" viewBox="0 0 220 40" fill="none" xmlns="http://www.w3.org/2000/svg">
<g clip-path="url(#clip0_1_2256)">
<path fill-rule="evenodd" clip-rule="evenodd" d="M9.33479 8.39876C7.25619 10.8175 6.04683 13.8409 5.70669 17.5068H30.083C29.705 13.8031 28.3823 10.7419 26.0769 8.36097C23.7716 5.98003 21.0127 4.77067 17.8003 4.77067C14.2478 4.77067 11.4134 5.98003 9.33479 8.39876ZM30.083 22.0419H0.0755853L0 20.0767C0 14.3322 1.58729 9.53254 4.76188 5.71548C7.93646 1.89842 12.2448 0.00878906 17.6492 0.00878906C22.8268 0.00878906 27.1351 1.93622 30.6121 5.75327C34.089 9.60813 35.7897 14.2566 35.7897 19.7744C35.7897 25.5944 33.9756 30.3563 30.3475 34.0222C26.7194 37.7259 22.2221 39.5399 16.9311 39.5399C10.7709 39.5399 5.55552 37.1968 1.32274 32.4349L4.83746 29.2981C8.2388 32.8506 12.2448 34.6647 16.7799 34.6647C20.2191 34.6647 23.2425 33.5309 25.7368 31.2255C28.2689 28.958 29.705 25.8968 30.083 22.0419Z" fill="white"/>
<path fill-rule="evenodd" clip-rule="evenodd" d="M36.8853 5.82886C33.1816 9.7215 31.292 14.37 31.292 19.7744C31.292 25.2165 33.1816 29.865 36.8853 33.7198C40.6268 37.6125 45.2375 39.5399 50.7174 39.5399C56.6131 39.5399 61.7529 37.1212 66.1368 32.2459L62.4332 28.8068C58.8428 32.5861 55.0636 34.5135 50.982 34.5135C47.0515 34.5135 43.7258 33.0774 41.0803 30.2051C38.397 27.3707 37.0743 23.8938 37.0743 19.7744C37.0743 15.6172 38.397 12.1402 41.0047 9.26799C43.6124 6.43354 46.8248 4.99742 50.6418 4.99742C54.8746 4.99742 58.7673 6.84926 62.282 10.5529L65.8723 6.73588C61.6017 2.23856 56.5753 0.00878906 50.7174 0.00878906C45.2375 0.00878906 40.6268 1.93622 36.8853 5.82886Z" fill="white"/>
<path d="M79.4023 31.4902V8.021H94.3682V8.58789L82.388 8.32334V19.1698L93.5368 18.9809V19.51L82.388 19.3966V31.2257L94.3682 30.9234V31.4902H79.4023Z" fill="white"/>
<path d="M105.177 31.4903L105.139 31.4525V31.4903H103.174L96.9385 15.7686H100.037L105.328 30.1676L110.733 15.7686H111.375L105.177 31.4903Z" fill="white"/>
<path d="M121.617 31.1124C122.07 31.1124 122.562 30.999 123.053 30.81C123.506 30.6211 123.96 30.3187 124.376 29.9786C124.791 29.6007 125.132 29.1094 125.358 28.5047C125.623 27.9378 125.774 27.2575 125.774 26.5773V24.0074C124.678 23.4405 123.469 23.1759 122.146 23.1759C120.823 23.1759 119.727 23.516 118.934 24.2341C118.102 24.99 117.724 25.9726 117.724 27.2197C117.724 28.4291 118.064 29.3739 118.745 30.092C119.463 30.7722 120.407 31.1124 121.617 31.1124ZM125.85 31.4903V28.3157C125.358 29.4117 124.64 30.2809 123.658 30.9234C122.675 31.5281 121.503 31.8682 120.181 31.8682C118.631 31.8682 117.346 31.4903 116.326 30.7344C115.268 29.9786 114.776 28.9582 114.776 27.5977C114.776 26.7662 114.928 26.0104 115.305 25.4057C115.646 24.7632 116.175 24.2719 116.779 23.894C117.422 23.516 118.102 23.2515 118.896 23.0625C119.652 22.8736 120.483 22.798 121.428 22.798C123.015 22.798 124.451 23.1003 125.774 23.705V20.2281C125.774 18.5652 125.472 17.3936 124.905 16.7134C124.338 16.0709 123.469 15.7308 122.335 15.7308C121.239 15.7308 120.332 16.1087 119.652 16.8645C118.971 17.6204 118.442 18.8298 118.064 20.4926L115.532 20.2659C116.061 18.7164 116.931 17.507 118.14 16.6378C119.349 15.8063 120.785 15.3906 122.41 15.3906C123.393 15.3906 124.225 15.504 124.98 15.693C125.698 15.9197 126.341 16.2599 126.908 16.7134C127.512 17.2047 127.928 17.8849 128.231 18.7542C128.533 19.6234 128.684 20.6438 128.684 21.891V31.4903H125.85Z" fill="white"/>
<path d="M156.122 15.3524L153.363 15.5791C153.136 13.236 152.38 11.4219 151.02 10.0992C149.697 8.73866 147.921 8.09619 145.691 8.09619C144.33 8.09619 143.083 8.39853 141.949 8.96542C140.853 9.5701 139.946 10.3637 139.228 11.3842C138.548 12.4046 138.019 13.6139 137.641 14.9367C137.301 16.2972 137.112 17.7333 137.112 19.3206C137.112 23.0621 137.981 26.0099 139.757 28.0885C141.571 30.1671 143.952 31.2253 146.938 31.2253C148.563 31.2253 150.075 30.8852 151.435 30.1671C152.796 29.4868 153.892 28.4664 154.723 27.1815C155.555 25.8965 155.97 24.3848 156.046 22.722H156.386C156.235 25.5186 155.215 27.7484 153.287 29.3735C151.36 31.0363 148.979 31.8678 146.144 31.8678C143.763 31.8678 141.685 31.3387 139.833 30.3183C137.981 29.2601 136.545 27.824 135.525 26.0099C134.542 24.1581 134.013 22.0795 134.013 19.7363C134.013 17.9601 134.315 16.335 134.92 14.8233C135.487 13.3116 136.318 12.0644 137.376 11.0062C138.397 9.98582 139.682 9.15438 141.118 8.58749C142.592 7.98281 144.179 7.71826 145.88 7.71826C147.089 7.71826 148.298 7.86943 149.394 8.20957C150.528 8.5497 151.549 9.00321 152.493 9.64569C153.4 10.2882 154.194 11.0818 154.837 12.0644C155.479 13.047 155.895 14.143 156.122 15.3524Z" fill="white"/>
<path d="M169.349 15.3906C170.898 15.3906 172.335 15.7308 173.62 16.411C174.904 17.1291 175.925 18.1117 176.681 19.3589C177.399 20.606 177.777 22.0421 177.777 23.6294C177.777 25.2167 177.399 26.6528 176.681 27.9C175.925 29.1472 174.904 30.1298 173.62 30.8478C172.335 31.5281 170.898 31.8682 169.349 31.8682C167.762 31.8682 166.288 31.5281 165.003 30.8478C163.718 30.1298 162.697 29.1472 161.979 27.9C161.224 26.6528 160.846 25.2167 160.846 23.6294C160.846 21.2107 161.677 19.2455 163.264 17.696C164.889 16.1465 166.892 15.3906 169.349 15.3906ZM169.349 31.4903C171.012 31.4903 172.335 30.8478 173.279 29.4873C174.186 28.1268 174.678 26.1993 174.678 23.6294C174.678 21.0973 174.186 19.1321 173.279 17.7716C172.335 16.411 171.012 15.7308 169.349 15.7308C167.648 15.7308 166.326 16.411 165.381 17.7716C164.436 19.1321 163.982 21.0973 163.982 23.6294C163.982 26.1993 164.436 28.1268 165.381 29.4873C166.326 30.8478 167.648 31.4903 169.349 31.4903Z" fill="white"/>
<path d="M190.815 31.2635C191.42 31.2635 191.987 31.1123 192.554 30.81C193.083 30.4698 193.612 30.0163 194.065 29.4116C194.519 28.807 194.897 28.0133 195.199 27.0307C195.464 26.0103 195.615 24.8765 195.615 23.5916C195.615 21.3618 195.161 19.5478 194.254 18.1116C193.309 16.7133 192.138 16.033 190.74 16.033C189.266 16.033 188.056 16.6377 187.074 17.8849C186.091 19.0942 185.6 20.9461 185.6 23.4026C185.6 25.8591 186.053 27.7866 186.998 29.1849C187.905 30.5454 189.19 31.2635 190.815 31.2635ZM195.464 31.4902V27.4842C195.01 28.9581 194.254 30.0541 193.234 30.7722C192.176 31.4902 191.004 31.8682 189.681 31.8682C187.527 31.8682 185.826 31.1501 184.504 29.6762C183.181 28.2023 182.501 26.2749 182.501 23.8939C182.501 21.1728 183.181 19.0565 184.504 17.5825C185.864 16.1086 187.641 15.3906 189.833 15.3906C191.193 15.3906 192.365 15.7685 193.309 16.5621C194.292 17.318 195.01 18.4896 195.464 20.0391V8.021H198.336V31.4902H195.464Z" fill="white"/>
<path d="M219.235 25.9348C218.857 27.9 218.026 29.4117 216.741 30.3943C215.494 31.3769 213.869 31.8682 211.941 31.8682C210.505 31.8682 209.22 31.5659 208.049 30.9234C206.877 30.3187 205.932 29.3739 205.214 28.1268C204.496 26.8796 204.118 25.3679 204.118 23.705C204.118 21.2107 204.836 19.2077 206.31 17.696C207.784 16.1465 209.674 15.3906 212.055 15.3906C214.209 15.3906 215.947 16.0709 217.232 17.4692C218.517 18.8298 219.16 20.606 219.16 22.7224V22.9114H207.179C207.255 25.7836 207.822 27.8244 208.88 29.1472C209.976 30.4699 211.412 31.1124 213.264 31.1124C214.738 31.1124 215.947 30.6211 216.968 29.6763C217.988 28.7314 218.631 27.4843 218.933 25.8592L219.235 25.9348ZM207.179 22.3067V22.5334H216.401C216.325 20.4548 215.909 18.8298 215.154 17.5826C214.398 16.3354 213.34 15.7308 211.941 15.7308C210.883 15.7308 210.014 16.0331 209.296 16.6756C208.54 17.2803 208.011 18.0739 207.671 19.0565C207.331 20.0391 207.179 21.0973 207.179 22.3067Z" fill="white"/>
</g>
<defs>
<clipPath id="clip0_1_2256">
<rect width="219.235" height="39.549" fill="white"/>
</clipPath>
</defs>
</svg>
