<svg width="40" height="26" viewBox="0 0 40 26" fill="none" xmlns="http://www.w3.org/2000/svg">
<path d="M0 2C0 0.895431 0.895431 0 2 0H38C39.1046 0 40 0.895431 40 2C40 3.10457 39.1046 4 38 4H2C0.895431 4 0 3.10457 0 2Z" fill="#B89254"/>
<path d="M0 13C0 11.8954 0.895431 11 2 11H38C39.1046 11 40 11.8954 40 13C40 14.1046 39.1046 15 38 15H2C0.895431 15 0 14.1046 0 13Z" fill="#B89254"/>
<path d="M0 24C0 22.8954 0.895431 22 2 22H38C39.1046 22 40 22.8954 40 24C40 25.1046 39.1046 26 38 26H2C0.895431 26 0 25.1046 0 24Z" fill="#B89254"/>
</svg>
