<svg width="12" height="12" viewBox="0 0 12 12" fill="none" xmlns="http://www.w3.org/2000/svg">
<path d="M11.6345 9.1875C11.6345 9.32812 11.6084 9.51172 11.5564 9.73828C11.5043 9.96484 11.4496 10.1432 11.3923 10.2734C11.2829 10.5339 10.9652 10.8099 10.4392 11.1016C9.9496 11.3672 9.46522 11.5 8.98605 11.5C8.84543 11.5 8.70741 11.4909 8.57199 11.4727C8.43657 11.4544 8.28683 11.4219 8.12277 11.375C7.95871 11.3281 7.83631 11.2904 7.75558 11.2617C7.67486 11.2331 7.53032 11.1797 7.32199 11.1016C7.11366 11.0234 6.98605 10.9766 6.93918 10.9609C6.42876 10.7786 5.97303 10.5625 5.57199 10.3125C4.91053 9.90104 4.22303 9.33854 3.50949 8.625C2.79595 7.91146 2.23345 7.22396 1.82199 6.5625C1.57199 6.16146 1.35585 5.70573 1.17355 5.19531C1.15793 5.14844 1.11105 5.02083 1.03293 4.8125C0.954803 4.60417 0.901418 4.45964 0.872772 4.37891C0.844126 4.29818 0.806366 4.17578 0.759491 4.01172C0.712616 3.84766 0.680064 3.69792 0.661835 3.5625C0.643606 3.42708 0.634491 3.28906 0.634491 3.14844C0.634491 2.66927 0.767303 2.1849 1.03293 1.69531C1.3246 1.16927 1.60064 0.851562 1.86105 0.742188C1.99126 0.684896 2.16965 0.630208 2.39621 0.578125C2.62277 0.526042 2.80637 0.5 2.94699 0.5C3.01991 0.5 3.0746 0.507812 3.11105 0.523438C3.2048 0.554688 3.34282 0.752604 3.52512 1.11719C3.58241 1.21615 3.66053 1.35677 3.75949 1.53906C3.85845 1.72135 3.9496 1.88672 4.03293 2.03516C4.11626 2.18359 4.19699 2.32292 4.27512 2.45312C4.29074 2.47396 4.33631 2.53906 4.41183 2.64844C4.48736 2.75781 4.54335 2.85026 4.5798 2.92578C4.61626 3.0013 4.63449 3.07552 4.63449 3.14844C4.63449 3.2526 4.56027 3.38281 4.41183 3.53906C4.2634 3.69531 4.10194 3.83854 3.92746 3.96875C3.75298 4.09896 3.59152 4.23698 3.44308 4.38281C3.29465 4.52865 3.22043 4.64844 3.22043 4.74219C3.22043 4.78906 3.23345 4.84766 3.25949 4.91797C3.28553 4.98828 3.30767 5.04167 3.3259 5.07812C3.34413 5.11458 3.38058 5.17708 3.43527 5.26562C3.48996 5.35417 3.51991 5.40365 3.52512 5.41406C3.92095 6.1276 4.37407 6.73958 4.88449 7.25C5.39491 7.76042 6.00689 8.21354 6.72043 8.60938C6.73085 8.61458 6.78032 8.64453 6.86887 8.69922C6.95741 8.75391 7.01991 8.79036 7.05637 8.80859C7.09282 8.82682 7.14621 8.84896 7.21652 8.875C7.28683 8.90104 7.34543 8.91406 7.3923 8.91406C7.48605 8.91406 7.60585 8.83984 7.75168 8.69141C7.89751 8.54297 8.03553 8.38151 8.16574 8.20703C8.29595 8.03255 8.43918 7.87109 8.59543 7.72266C8.75168 7.57422 8.88189 7.5 8.98605 7.5C9.05897 7.5 9.13319 7.51823 9.20871 7.55469C9.28423 7.59115 9.37668 7.64714 9.48605 7.72266C9.59543 7.79818 9.66053 7.84375 9.68137 7.85938C9.81157 7.9375 9.9509 8.01823 10.0993 8.10156C10.2478 8.1849 10.4131 8.27604 10.5954 8.375C10.7777 8.47396 10.9183 8.55208 11.0173 8.60938C11.3819 8.79167 11.5798 8.92969 11.6111 9.02344C11.6267 9.0599 11.6345 9.11458 11.6345 9.1875Z" fill="#777777"/>
</svg>
