<svg width="128" height="128" viewBox="0 0 128 128" fill="none" xmlns="http://www.w3.org/2000/svg">
<path d="M13.6851 41.1045C14.7143 41.2188 15.6401 40.4736 15.7524 39.4434L16.8218 29.6377C17.0229 27.7949 18.5727 26.4063 20.4263 26.4063H33.4536V32.6914C33.4536 33.7266 34.2925 34.5664 35.3286 34.5664C36.3638 34.5664 37.2036 33.7266 37.2036 32.6914V26.4063H69.4419V32.6914C69.4419 33.7266 70.2817 34.5664 71.3179 34.5664C72.353 34.5664 73.1929 33.7266 73.1929 32.6914V26.4063H86.2192C88.0727 26.4063 89.6226 27.7959 89.8237 29.6387L92.395 53.2061C92.4995 54.167 93.312 54.8779 94.2563 54.8779C94.3237 54.8779 94.3931 54.874 94.4614 54.8672C95.4917 54.7549 96.2349 53.8291 96.1226 52.7998L93.5513 29.2314C93.1421 25.4824 89.9897 22.6553 86.2192 22.6553H73.1919V19.8691C73.1929 8.91309 64.2788 0 53.3227 0C42.3667 0 33.4536 8.91309 33.4536 19.8691V22.6553H20.4263C16.6558 22.6553 13.5034 25.4824 13.0942 29.2314L12.0249 39.0371C11.9126 40.0664 12.6558 40.9922 13.6851 41.1045ZM37.2036 19.8691C37.2036 10.9814 44.4351 3.75 53.3227 3.75C62.2114 3.75 69.4419 10.9814 69.4419 19.8691V22.6553H37.2036V19.8691Z" fill="#AE894D"/>
<path d="M103.644 69.0862C101.348 71.3821 101.348 75.1184 103.644 77.4143C104.791 78.5627 106.299 79.137 107.808 79.137C109.316 79.137 110.823 78.5627 111.972 77.4143C114.268 75.1184 114.268 71.3821 111.972 69.0862C109.676 66.7903 105.94 66.7903 103.644 69.0862ZM109.321 74.7629C108.487 75.5969 107.129 75.5969 106.295 74.7629C105.461 73.929 105.461 72.5715 106.295 71.7385C107.129 70.9045 108.487 70.9045 109.321 71.7385C110.155 72.5725 110.155 73.929 109.321 74.7629Z" fill="#AE894D"/>
<path d="M122.456 88.4401L121.583 66.8913C121.421 62.8942 118.163 59.6374 114.167 59.4753L92.6172 58.6012C90.4648 58.5133 88.3574 59.3376 86.834 60.861L55.4726 92.2223C53.9004 93.7946 53.0967 95.8483 53.0595 97.9128H9.37302L14.9404 46.8698C15.0527 45.8395 14.3095 44.9147 13.2802 44.8024C12.249 44.6891 11.3252 45.4333 11.2129 46.4626L5.58982 98.0094C5.11911 102.333 6.51364 106.669 9.41794 109.907C12.3213 113.144 16.4814 115.001 20.8291 115.001H66.5732L77.1572 125.585C78.7675 127.195 80.8818 128 82.9961 128C85.1103 128 87.2256 127.195 88.8349 125.585L120.196 94.2233C121.72 92.6999 122.544 90.5924 122.456 88.4401ZM20.8291 111.251C17.5449 111.251 14.4033 109.848 12.2099 107.403C10.749 105.775 9.79392 103.779 9.4238 101.663H53.8808C54.2715 102.472 54.8027 103.23 55.4726 103.9L62.8232 111.251H20.8291ZM117.545 91.5719L86.1836 122.933C84.4258 124.69 81.5664 124.691 79.8086 122.933L58.124 101.249C56.3672 99.4909 56.3672 96.6315 58.124 94.8737L89.4863 63.5124C90.2334 62.7653 91.2529 62.3454 92.3056 62.3454C92.3584 62.3454 92.4121 62.3464 92.4658 62.3483L114.015 63.2223C116.074 63.3053 117.752 64.9841 117.836 67.0426L118.709 88.5915C118.754 89.7008 118.33 90.7868 117.545 91.5719Z" fill="#AE894D"/>
<path d="M81.9414 90.6934C85.5332 90.6934 88.4561 87.7705 88.4561 84.1797C88.4561 80.5879 85.5332 77.665 81.9414 77.665C78.3496 77.665 75.4277 80.5879 75.4277 84.1797C75.4277 87.7705 78.3496 90.6934 81.9414 90.6934ZM81.9414 81.416C83.4658 81.416 84.7061 82.6553 84.7061 84.1797C84.7061 85.7031 83.4658 86.9434 81.9414 86.9434C80.418 86.9434 79.1777 85.7031 79.1777 84.1797C79.1777 82.6553 80.418 81.416 81.9414 81.416Z" fill="#AE894D"/>
<path d="M93.5762 95.9062C89.9844 95.9062 87.0625 98.8281 87.0625 102.42C87.0625 106.012 89.9844 108.935 93.5762 108.935C97.168 108.935 100.09 106.012 100.09 102.42C100.09 98.8281 97.168 95.9062 93.5762 95.9062ZM93.5762 105.184C92.0518 105.184 90.8125 103.944 90.8125 102.42C90.8125 100.896 92.0518 99.6562 93.5762 99.6562C95.1006 99.6562 96.3398 100.896 96.3398 102.42C96.3398 103.944 95.0996 105.184 93.5762 105.184Z" fill="#AE894D"/>
<path d="M98.645 82.4126C97.9126 81.6802 96.7251 81.6802 95.9937 82.4126L76.8716 101.535C76.1392 102.267 76.1392 103.455 76.8716 104.186C77.2368 104.552 77.7173 104.736 78.1968 104.736C78.6763 104.736 79.1567 104.552 79.5229 104.186L98.645 85.064C99.3774 84.3315 99.3774 83.144 98.645 82.4126Z" fill="#AE894D"/>
</svg>
