<svg width="107" height="107" viewBox="0 0 107 107" fill="none" xmlns="http://www.w3.org/2000/svg">
<g clip-path="url(#clip0_223_37458)">
<path d="M30.9304 79.2715C26.2557 79.0327 26.3437 72.4575 30.9302 72.2291C43.9224 72.2743 78.1902 72.2412 91.5955 72.2507C95.262 72.2507 98.3988 69.7555 99.2235 66.1833L106.835 33.2213C107.271 31.334 106.831 29.3807 105.629 27.8624C104.426 26.3442 102.626 25.4612 100.689 25.4612C95.2959 25.4612 49.5197 25.254 26.0732 25.1605L22.3565 11.37C21.4643 8.07446 18.4569 5.77295 15.0427 5.77295H3.13643C1.40428 5.77295 0 7.17723 0 8.90938C0 10.6415 1.40428 12.0458 3.13643 12.0458H15.0427C15.6305 12.0458 16.148 12.442 16.3009 13.006L30.5748 65.9648C28.065 66.056 25.7273 67.0768 23.9546 68.8754C22.092 70.7657 21.0917 73.2677 21.1379 75.9209C21.2303 81.2271 25.6232 85.5441 30.9304 85.5441H35.5038C34.824 86.971 34.4424 88.5662 34.4424 90.249C34.4424 96.3023 39.367 101.227 45.4203 101.227C51.4737 101.227 56.3983 96.3023 56.3983 90.249C56.3983 88.566 56.0165 86.971 55.3367 85.5441H75.1414C74.4622 86.9706 74.0806 88.5649 74.0806 90.2473C74.0806 96.3006 79.0055 101.225 85.0586 101.225C91.1119 101.225 96.0367 96.3004 96.0367 90.2473C96.0367 88.4995 95.6239 86.8468 94.8942 85.3785C96.1354 84.9605 97.0303 83.7898 97.0303 82.4079C97.0303 80.6757 95.626 79.2715 93.8939 79.2715H30.9304ZM50.1252 90.2492C50.1252 92.8436 48.0146 94.9542 45.4201 94.9542C42.8257 94.9542 40.7151 92.8436 40.7151 90.2492C40.7151 87.6562 42.8236 85.5464 45.4162 85.5443H45.4241C48.0167 85.5464 50.1252 87.6562 50.1252 90.2492ZM85.0588 94.9526C82.4645 94.9526 80.3537 92.8418 80.3537 90.2475C80.3537 87.6788 82.4233 85.5855 84.9825 85.5443H85.1353C87.6946 85.5855 89.7643 87.6788 89.7643 90.2475C89.764 92.8418 87.6532 94.9526 85.0588 94.9526ZM100.712 31.757C100.73 31.7804 100.728 31.7915 100.724 31.8095L97.5163 45.6987H86.6554L88.5049 31.6845L100.664 31.7334C100.682 31.7338 100.693 31.7338 100.712 31.757ZM68.3761 65.9776V51.9715H79.5004L77.652 65.9776H68.3761ZM52.8232 65.9776L50.9597 51.9715H62.1032V65.9776H52.8232ZM38.3845 65.9776H38.3747C37.6102 65.9774 36.9367 65.4618 36.7379 64.7272L33.2999 51.9715H44.6314L46.4949 65.9776H38.3845ZM50.125 45.6989L48.2387 31.5224L62.103 31.5783V45.6989H50.125ZM68.3761 45.6989V31.6036L82.181 31.6592L80.3282 45.6989H68.3761ZM41.9071 31.4967L43.7967 45.6987H31.6092L27.766 31.4396L41.9071 31.4967ZM91.5955 65.9776H83.979L85.8274 51.9715H96.0674L93.1115 64.7717C92.9475 65.4818 92.3242 65.9776 91.5955 65.9776Z" fill="#AE894D"/>
</g>
<defs>
<clipPath id="clip0_223_37458">
<rect width="107" height="107" fill="white"/>
</clipPath>
</defs>
</svg>
