<svg width="26" height="26" viewBox="0 0 26 26" fill="none" xmlns="http://www.w3.org/2000/svg">
<path d="M6.09337 25.334C6.39615 25.334 6.69744 25.2411 6.95676 25.0559L13.0537 20.6835L19.1507 25.0559C19.4033 25.2377 19.7068 25.3349 20.018 25.3339C20.3292 25.3328 20.6321 25.2334 20.8834 25.0499C21.135 24.8675 21.3227 24.6104 21.4197 24.3152C21.5167 24.02 21.5181 23.7017 21.4238 23.4056L19.1499 16.0668L25.1921 11.809C25.4426 11.6242 25.6285 11.3654 25.7238 11.0691C25.819 10.7728 25.8186 10.454 25.7228 10.1579C25.6262 9.86257 25.4392 9.60503 25.1882 9.42172C24.9372 9.23841 24.635 9.13861 24.3243 9.13641L16.8408 9.12517L14.4582 1.96847C14.3599 1.67365 14.1713 1.41723 13.9192 1.23553C13.667 1.05383 13.3641 0.956054 13.0533 0.956054C12.7425 0.956054 12.4396 1.05383 12.1875 1.23553C11.9354 1.41723 11.7468 1.67365 11.6485 1.96847L9.30635 9.12517L1.78466 9.13641C1.47353 9.13817 1.17085 9.23792 0.919645 9.4215C0.668437 9.60509 0.481467 9.86316 0.385295 10.1591C0.289121 10.455 0.288636 10.7737 0.38391 11.0698C0.479184 11.366 0.665372 11.6247 0.916022 11.809L6.95826 16.0668L4.68436 23.4056C4.58984 23.7016 4.59111 24.0199 4.68799 24.3151C4.78488 24.6104 4.97245 24.8675 5.22398 25.0499C5.47609 25.2349 5.7807 25.3344 6.09337 25.334Z" fill="#CEC9C1"/>
</svg>
